<svg id="Layer_1" xmlns="http://www.w3.org/2000/svg" version="1.1" viewBox="0 0 221 64"><path fill="#ffffff" d="M84.7 24c.2.5 0 .9-.5 1L80 26.2c-.5.2-.8 0-.9-.5-.7-2.1-2.1-3.3-4.6-3.3-4 0-5.3 2.3-5.3 5.5v7.2c0 3.1 1.3 5.5 5.3 5.5s5-1.5 5-4.8v-.9h-4.3c-.3 0-.6-.2-.6-.6v-4c0-.4.2-.6.6-.6h9.5c.4 0 .6.2.6.6v6c0 5.7-4.2 10-10.7 10s-11.3-4.6-11.3-10.9v-7.6c0-6.3 3.6-10.9 11.3-10.9s9.1 3.6 10.2 7.1m21.2 7.2v14c0 .3-.2.6-.6.6h-4.3c-.4 0-.6-.2-.6-.6v-2.3c-1.3 2.1-3.3 3.3-5.9 3.3-4 0-6.6-2.6-6.6-6.6s2.4-6.2 8.4-6.6c1.3-.1 2.6-.1 3.9 0v-1.6c0-2.1-1.1-2.9-2.9-2.9s-2.4.8-2.9 2c-.2.5-.3.5-.8.4l-4.3-1.1c-.4-.1-.5-.3-.4-.7.6-3.1 3.5-5.3 8.6-5.3s8.4 2.6 8.4 7.4m-5.7 7.3v-2c-1.2 0-2.3 0-3.4.1-2.2.3-3.3.9-3.3 2.6s1 2.3 2.7 2.3 3.4-1 4.1-3m21-14.7c2.7 0 4.5 1.6 5.3 3.9 1.6-2.3 3.5-3.9 6.2-3.9s5.9 3 5.9 7.4v13.9c0 .3-.3.6-.7.6h-4.5c-.4 0-.7-.2-.7-.6V32.2c0-1.9-.9-3.1-2.4-3.1s-2.8 1.3-3.3 3.3v12.7c0 .4-.3.6-.5.6h-4.8c-.3 0-.5-.2-.5-.6V32.2c0-1.9-.9-3.1-2.4-3.1s-2.8 1.4-3.3 3.4v12.6c0 .3-.2.6-.6.6h-4.7c-.4 0-.6-.2-.6-.6V24.7c0-.3.2-.5.6-.5h4.5c.4 0 .6.3.6.5v2.4c1.3-1.8 3.1-3.5 5.9-3.5m41.9.7c.1.5 0 .9-.5 1l-4.1 1.2c-.5.2-.8 0-.9-.5-.6-1.9-1.6-3.5-4.5-3.5s-4.7 2.3-4.7 5.5v7.2c0 3.1 1.3 5.5 4.7 5.5s4.2-1.7 4.7-3.8c.1-.5.4-.7.9-.5l4.1 1.3c.5.2.6.5.5 1-1 4.2-4 7.6-10.3 7.6s-10.6-4.6-10.6-10.9v-7.6c0-6.3 3.6-10.9 10.6-10.9s9 3.3 10.1 7.4m20.6 6.9v14c0 .3-.2.6-.6.6H179c-.4 0-.6-.2-.6-.6v-2.3c-1.3 2.1-3.3 3.3-5.9 3.3-4 0-6.6-2.6-6.6-6.6s2.4-6.2 8.4-6.6c1.3-.1 2.6-.1 3.9 0v-1.6c0-2.1-1.1-2.9-2.9-2.9s-2.4.8-2.9 2c-.2.5-.3.5-.8.4l-4.3-1.1c-.4-.1-.5-.3-.4-.7.6-3.1 3.5-5.3 8.6-5.3s8.4 2.6 8.4 7.4m-5.7 7.3v-2c-1.2 0-2.3 0-3.4.1-2.2.3-3.3.9-3.3 2.6s1 2.3 2.7 2.3 3.4-1 4.1-3m22.2-13.8v4.2c0 .5-.2.7-.7.7h-.6c-3.1 0-4.9 1.4-5.5 3.7v11.9c0 .4-.3.6-.5.6h-4.9c-.2 0-.5-.2-.5-.6V24.8c0-.3.2-.5.6-.5h4.4c.5 0 .6.3.6.6v2.9c1-1.9 2.9-3.8 6.2-3.8s.9.1.9.7m7.7 12.1v.8c0 2.3 1.2 3.8 3.9 3.8s3.4-1 4.1-2.3c.3-.6.5-.7 1.1-.4l3.1 1.6c.6.3.7.6.4 1.2-1.3 3-4.6 4.7-8.7 4.7-6.2 0-9.5-3.7-9.5-8.7v-5c0-4.9 3.1-8.7 9.4-8.7s9 3.8 9 8.6v3.4c0 .6-.2 1-1 1h-11.8zm0-4.5v.7h7.5v-.7c0-2.1-1.2-3.7-3.7-3.7s-3.8 1.6-3.8 3.7"/><path d="M26.9 0H.9C.4 0 0 .4 0 .8v37.9c0 13.5 11 24.5 24.5 24.5h2.4c13.5 0 24.5-11 24.5-24.5V24.5C51.4 11 40.4 0 26.9 0m16.6 39.1c0 9.2-6.8 16.2-17.3 16.2S7.9 47.9 7.9 37.8V25.5C7.9 15.4 13.7 8 26.2 8s14.7 5.8 16.5 11.5c.3.9 0 1.4-.8 1.6l-6.8 2c-.8.3-1.3 0-1.5-.8-1.1-3.4-3.3-5.3-7.5-5.3-6.4 0-8.5 3.8-8.5 8.8v11.7c0 5.1 2.1 8.8 8.5 8.8s8-2.4 8-7.8V37h-7c-.6 0-.9-.3-.9-1v-6.5c0-.6.4-1 .9-1h15.3c.6 0 1 .3 1 .9V39z" fill="#2e008b"/><path fill="#ffffff" d="M64.6 56.5V51s0-.1.1-.1h3.2s.1 0 .1.1v.9s0 .1-.1.1h-2.1v1.4h1.9s.1 0 .1.1v.8s0 .1-.1.1h-1.9v2s0 .1-.1.1h-1s-.1 0-.1-.1zm4-1.5v-.9c0-1.2.7-1.8 1.9-1.8s1.9.7 1.9 1.8v.9c0 1.1-.7 1.8-1.9 1.8s-1.9-.6-1.9-1.8zm1.9.7c.5 0 .7-.3.7-.8V54c0-.5-.3-.8-.7-.8s-.7.3-.7.8v.9c0 .5.2.8.7.8zm6.5-3.2v4.1s0 .1-.1.1H76s-.1 0-.1-.1v-.4c-.3.4-.7.6-1.2.6-.9 0-1.3-.6-1.3-1.7v-2.6s0-.1.1-.1h1s.1 0 .1.1v2.6c0 .4.2.7.6.7s.6-.3.8-.6v-2.6s0-.1.1-.1h1s.1 0 .1.1zm1 4v-4.1s0-.1.1-.1h.9s.1 0 .1.1v.4c.3-.4.7-.6 1.2-.6.9 0 1.3.6 1.3 1.7v2.6s0 .1-.1.1h-1s-.1 0-.1-.1v-2.6c0-.4-.2-.7-.6-.7s-.6.3-.8.6v2.6s0 .1-.1.1h-1s-.1 0-.1-.1zm4.6-1.6V54c0-1.1.6-1.8 1.5-1.8s.9.2 1.1.5v-2s0-.1.1-.1h1s.1 0 .1.1v5.7s0 .1-.1.1h-.9s-.1 0-.1-.1V56c-.2.4-.6.6-1.2.6-.9 0-1.5-.7-1.5-1.8zm1.9.8c.5 0 .8-.3.8-.8V54c0-.5-.3-.8-.8-.8s-.7.3-.7.8v.9c0 .5.3.8.7.8zm2.9-.7v-.9c0-1.2.7-1.8 1.8-1.8s1.8.7 1.8 1.8v.7s0 .1-.1.1h-2.5c0 .6.3.9.8.9s.6-.2.7-.4h.1l.8.2v.1c-.2.7-.8 1.1-1.7 1.1s-1.9-.6-1.9-1.8zm2.6-.9c0-.6-.3-.9-.7-.9s-.8.3-.8.8c0 .1 1.5.1 1.5.1zm2 2.4v-4.1s0-.1.1-.1h.9s.1 0 .1.1v.5c.2-.4.6-.7 1.3-.7 0 0 .1 0 .1.1v.9s0 .1-.1.1c-.7 0-1.1.1-1.3.6v2.5s0 .1-.1.1h-1s-.1 0-.1-.1zm4.9-1.5v-.9c0-1.2.7-1.8 1.9-1.8s1.9.7 1.9 1.8v.9c0 1.1-.7 1.8-1.9 1.8s-1.9-.6-1.9-1.8zm1.9.7c.5 0 .7-.3.7-.8V54c0-.5-.3-.8-.7-.8s-.7.3-.7.8v.9c0 .5.2.8.7.8zm4.5-5h.6s.1 0 .1.1v.7s0 .1-.1.1h-.4c-.3 0-.4.1-.4.4v.3h.8s.1 0 .1.1v.7s0 .1-.1.1h-.8v3.2s0 .1-.1.1h-1s-.1 0-.1-.1v-3.2h-.6s-.1 0-.1-.1v-.7s0-.1.1-.1h.6V52c0-.9.5-1.3 1.4-1.3zm3.4 4.7v-2.1h-.5s-.1 0-.1-.1v-.7s0-.1.1-.1h.5v-.9s0-.1.1-.1h.9s.1 0 .1.1v.9h.8s.1 0 .1.1v.7s0 .1-.1.1h-.8v1.9c0 .3.2.4.4.4h.4s.1 0 .1.1v.8s0 .1-.1.1h-.6c-.9 0-1.4-.5-1.4-1.3zm3 1.1v-5.7s0-.1.1-.1h1s.1 0 .1.1v2c.3-.4.7-.6 1.1-.6.9 0 1.3.6 1.3 1.7v2.6s0 .1-.1.1h-1s-.1 0-.1-.1v-2.6c0-.4-.2-.7-.6-.7s-.6.3-.8.6v2.6s0 .1-.1.1h-1s-.1 0-.1-.1zm4.5-1.5v-.9c0-1.2.7-1.8 1.8-1.8s1.8.7 1.8 1.8v.7s0 .1-.1.1h-2.5c0 .6.3.9.8.9s.6-.2.7-.4h.1l.8.2v.1c-.2.7-.8 1.1-1.7 1.1s-1.9-.6-1.9-1.8zm2.6-.9c0-.6-.3-.9-.7-.9s-.8.3-.8.8c0 .1 1.5.1 1.5.1zm4.1 2.4V51s0-.1.1-.1h1.5l1.1 2.6c.2.6.4 1.2.6 1.7V51s0-.1.1-.1h.9s.1 0 .1.1v5.5s0 .1-.1.1h-1.4l-1.2-2.6c-.2-.6-.5-1.2-.6-1.7v4.3s0 .1-.1.1h-.9s-.1 0-.1-.1zm7.9 0V56c-.3.4-.7.7-1.2.7-.8 0-1.3-.5-1.3-1.3s.5-1.3 1.8-1.3h.6v-.3c0-.4-.2-.6-.6-.6s-.5.2-.6.4h-.1l-.9-.2v-.1c.2-.6.7-1.1 1.7-1.1s1.7.5 1.7 1.5v2.8s0 .1-.1.1h-.9s-.1 0-.1-.1zm-.9-.7c.4 0 .7-.2.8-.6v-.4h-.6c-.5 0-.7.2-.7.5s.2.5.5.5zm3.3-.4v-2.1h-.5s-.1 0-.1-.1v-.7s0-.1.1-.1h.5v-.9s0-.1.1-.1h.9s.1 0 .1.1v.9h.8s.1 0 .1.1v.7s0 .1-.1.1h-.8v1.9c0 .3.2.4.4.4h.4s.1 0 .1.1v.8s0 .1-.1.1h-.6c-.9 0-1.4-.5-1.4-1.3zm2.9-3.7v-.8s0-.1.1-.1h1s.1 0 .1.1v.8s0 .1-.1.1h-1s-.1 0-.1-.1zm0 4.8v-4.1s0-.1.1-.1h1s.1 0 .1.1v4.1s0 .1-.1.1h-1s-.1 0-.1-.1zm2.1-1.5v-.9c0-1.2.7-1.8 1.9-1.8s1.9.7 1.9 1.8v.9c0 1.1-.7 1.8-1.9 1.8s-1.9-.6-1.9-1.8zm1.9.7c.5 0 .7-.3.7-.8V54c0-.5-.3-.8-.7-.8s-.7.3-.7.8v.9c0 .5.2.8.7.8zm2.8.8v-4.1s0-.1.1-.1h.9s.1 0 .1.1v.4c.3-.4.7-.6 1.2-.6.9 0 1.3.6 1.3 1.7v2.6s0 .1-.1.1h-1s-.1 0-.1-.1v-2.6c0-.4-.2-.7-.6-.7s-.6.3-.8.6v2.6s0 .1-.1.1h-1s-.1 0-.1-.1zm7 0V56c-.3.4-.7.7-1.2.7-.8 0-1.3-.5-1.3-1.3s.5-1.3 1.8-1.3h.6v-.3c0-.4-.2-.6-.6-.6s-.5.2-.6.4h-.1l-.9-.2v-.1c.2-.6.7-1.1 1.7-1.1s1.7.5 1.7 1.5v2.8s0 .1-.1.1h-.9s-.1 0-.1-.1zm-.8-.7c.4 0 .7-.2.8-.6v-.4h-.6c-.5 0-.7.2-.7.5s.2.5.5.5zm3 .7v-5.7s0-.1.1-.1h1s.1 0 .1.1v5.7s0 .1-.1.1h-1s-.1 0-.1-.1zm4.1-1.9v-1.5c0-1.4.8-2.2 2.2-2.2s1.9.7 2.1 1.5v.1l-.9.3h-.1c-.1-.4-.3-.7-1-.7s-1 .5-1 1.1v1.5c0 .6.3 1.1 1 1.1s1-.5 1-1.1h-.9s-.1 0-.1-.1v-.8s0-.1.1-.1h1.9s.1 0 .1.1v1c0 1.2-.7 2.2-2.2 2.2s-2.2-.9-2.2-2.2zm7.6 1.9V56c-.3.4-.7.7-1.2.7-.8 0-1.3-.5-1.3-1.3s.5-1.3 1.8-1.3h.6v-.3c0-.4-.2-.6-.6-.6s-.5.2-.6.4h-.1l-.9-.2v-.1c.2-.6.7-1.1 1.7-1.1s1.7.5 1.7 1.5v2.8s0 .1-.1.1h-.9s-.1 0-.1-.1zm-.8-.7c.4 0 .7-.2.8-.6v-.4h-.6c-.5 0-.7.2-.7.5s.2.5.5.5zm3 .7v-4.1s0-.1.1-.1h.9s.1 0 .1.1v.4c.3-.4.6-.6 1.1-.6s.9.2 1.1.7c.3-.4.7-.7 1.2-.7.8 0 1.3.6 1.3 1.7v2.6s0 .1-.1.1h-1s-.1 0-.1-.1v-2.6c0-.4-.2-.7-.5-.7s-.6.3-.7.6v2.6s0 .1-.1.1h-1s-.1 0-.1-.1v-2.6c0-.4-.2-.7-.5-.7s-.6.3-.7.6v2.6s0 .1-.1.1h-1s-.1 0-.1-.1zm8-.4v.4s0 .1-.1.1h-.9s-.1 0-.1-.1v-5.7s0-.1.1-.1h1s.1 0 .1.1v2c.2-.4.7-.6 1.2-.6.9 0 1.5.7 1.5 1.8v.9c0 1.1-.6 1.8-1.5 1.8s-.9-.2-1.2-.6zm.8-.4c.4 0 .7-.3.7-.8V54c0-.5-.3-.8-.7-.8s-.8.3-.8.8v.9c0 .5.3.8.8.8zm2.8.8v-5.7s0-.1.1-.1h1s.1 0 .1.1v5.7s0 .1-.1.1h-1s-.1 0-.1-.1zm2.2-4.8v-.8s0-.1.1-.1h1s.1 0 .1.1v.8s0 .1-.1.1h-1s-.1 0-.1-.1zm0 4.8v-4.1s0-.1.1-.1h1s.1 0 .1.1v4.1s0 .1-.1.1h-1s-.1 0-.1-.1zm2.3 0v-4.1s0-.1.1-.1h.9s.1 0 .1.1v.4c.3-.4.7-.6 1.2-.6.9 0 1.3.6 1.3 1.7v2.6s0 .1-.1.1h-1s-.1 0-.1-.1v-2.6c0-.4-.2-.7-.6-.7s-.6.3-.8.6v2.6s0 .1-.1.1h-1s-.1 0-.1-.1zm4.4.7c0-.4.2-.7.7-.9-.2-.2-.3-.4-.3-.6s.1-.5.4-.6c-.4-.3-.7-.7-.7-1.2 0-.8.5-1.5 1.7-1.5h2s.1 0 .1.1v.7s0 .1-.1.1h-.6c.2.2.3.4.3.8 0 .7-.5 1.3-1.6 1.3h-.2c-.2 0-.3 0-.3.2s0 .2.3.2h.8c1.1 0 1.5.5 1.5 1.2s-.6 1.4-2.1 1.4-1.9-.5-1.9-1.1zm1.9.3c.7 0 .9-.2.9-.5s-.1-.4-.5-.4h-.8c-.4 0-.5.2-.5.4s.2.5.9.5zm-.1-3c.4 0 .7-.2.7-.7s-.2-.6-.7-.6-.7.2-.7.6.2.7.7.7zm8.1 2v-2.2h-2v2.2s0 .1-.1.1h-1s-.1 0-.1-.1V51s0-.1.1-.1h1s.1 0 .1.1v2.2h2V51s0-.1.1-.1h1s.1 0 .1.1v5.5s0 .1-.1.1h-1s-.1 0-.1-.1zm2.2-1.5v-.9c0-1.2.7-1.8 1.8-1.8s1.8.7 1.8 1.8v.7s0 .1-.1.1h-2.5c0 .6.3.9.8.9s.6-.2.7-.4h.1l.8.2v.1c-.2.7-.8 1.1-1.7 1.1s-1.9-.6-1.9-1.8zm2.6-.9c0-.6-.3-.9-.7-.9s-.8.3-.8.8c0 .1 1.5.1 1.5.1zm2 2.4v-5.7s0-.1.1-.1h1s.1 0 .1.1v5.7s0 .1-.1.1h-1s-.1 0-.1-.1zm2.3 1.6v-5.6s0-.1.1-.1h.9s.1 0 .1.1v.4c.2-.4.7-.6 1.2-.6.9 0 1.5.7 1.5 1.8v.9c0 1.1-.6 1.8-1.5 1.8s-.9-.2-1.1-.5v1.9s0 .1-.1.1h-1s-.1 0-.1-.1zm1.9-2.4c.4 0 .7-.3.7-.8V54c0-.5-.3-.8-.7-.8s-.8.3-.8.8v.9c0 .5.3.8.8.8zm2.8.8v-5.7s0-.1.1-.1h1s.1 0 .1.1v5.7s0 .1-.1.1h-1s-.1 0-.1-.1zm2.3-4.8v-.8s0-.1.1-.1h1s.1 0 .1.1v.8s0 .1-.1.1h-1s-.1 0-.1-.1zm0 4.8v-4.1s0-.1.1-.1h1s.1 0 .1.1v4.1s0 .1-.1.1h-1s-.1 0-.1-.1zm2.2 0v-4.1s0-.1.1-.1h.9s.1 0 .1.1v.4c.3-.4.7-.6 1.2-.6.9 0 1.3.6 1.3 1.7v2.6s0 .1-.1.1h-1s-.1 0-.1-.1v-2.6c0-.4-.2-.7-.6-.7s-.6.3-.8.6v2.6s0 .1-.1.1h-1s-.1 0-.1-.1zm4.6-1.5v-.9c0-1.2.7-1.8 1.8-1.8s1.8.7 1.8 1.8v.7s0 .1-.1.1h-2.5c0 .6.3.9.8.9s.6-.2.7-.4h.1l.8.2v.1c-.2.7-.8 1.1-1.7 1.1s-1.9-.6-1.9-1.8zm2.6-.9c0-.6-.3-.9-.7-.9s-.8.3-.8.8c0 .1 1.5.1 1.5.1z"/></svg>