<svg width="152" height="21" viewBox="0 0 152 21" fill="none" xmlns="http://www.w3.org/2000/svg">
<g clip-path="url(#clip0_8305_3545)">
<path d="M97.7786 19.9068L96.424 14.8239H89.8685L88.514 19.9068H85.8125L91.204 0.760254H95.2314L100.648 19.9068H97.7805H97.7786ZM90.482 12.6387H95.8125L93.1472 2.67109L90.482 12.6387Z" fill="#FF5E00"/>
<path d="M111.507 19.9068L109.04 10.1449H108.856L106.36 19.9068H103.691L100.176 6.28516H102.851L105.099 16.0737L105.283 16.0756L107.779 6.28516H110.338L112.778 16.0756L112.963 16.0737L115.295 6.28516H117.72L114.205 19.9068H111.507Z" fill="#FF5E00"/>
<path d="M122.514 20.2383C120.048 20.2383 118.328 18.6418 118.328 16.3556C118.328 13.7628 120.656 12.7207 122.043 12.332L126.394 11.0975V10.5279C126.394 8.99233 125.453 8.11217 123.813 8.11217C122.321 8.11217 121.171 9.08188 120.689 10.044L120.649 10.1221L118.635 9.05139L118.732 8.85898C119.418 7.4549 121.178 5.95557 124.061 5.95557C127.248 5.95557 129.077 7.5311 129.077 10.2802V17.5463C129.077 18.5351 129.134 19.2857 129.244 19.7772L129.273 19.9087H126.596L126.585 19.8477C126.501 19.4572 126.448 19.0723 126.421 18.6723L126.406 18.4532L126.255 18.6132C125.234 19.701 124.045 20.2173 122.512 20.2402L122.514 20.2383ZM123.287 13.9438C122.344 14.2429 121.092 14.7972 121.092 16.1613C121.092 17.3882 121.984 18.2455 123.26 18.2455C124.63 18.2455 125.768 17.4282 126.373 16.6624L126.394 16.6357V12.9931L123.287 13.9418V13.9438Z" fill="#FF5E00"/>
<path d="M132.055 19.9068V6.28519H134.545V9.04381L134.712 8.84758C136.244 7.06058 137.77 6.15945 139.38 6.09277V8.57896C137.387 8.61516 135.871 9.75823 134.769 10.7584L134.739 10.787V19.9049H132.057L132.055 19.9068Z" fill="#FF5E00"/>
<path d="M145.798 20.2382C142.142 20.2382 139.871 17.5748 139.871 13.2883C139.871 8.76362 142.132 5.95166 145.771 5.95166C146.806 5.95166 148.286 6.19361 149.458 7.34621C150.595 8.46643 151.172 10.1753 151.172 12.431V13.6331H142.498V13.8941C142.498 16.4851 143.826 18.1616 145.882 18.1616C147.221 18.1616 148.233 17.5596 148.894 16.3727L149.018 16.1441L151.109 17.0376L151.016 17.2243C150.016 19.2247 148.261 20.2382 145.798 20.2382ZM145.771 8.08349C145.097 8.08349 142.866 8.35212 142.527 11.8156L142.517 11.9204H148.658V11.6308C148.658 9.40946 147.579 8.08159 145.771 8.08159V8.08349Z" fill="#FF5E00"/>
<path d="M0 10.7202C0 3.81416 3.012 0.333496 7.76338 0.333496C11.0516 0.333496 13.5378 1.93571 14.2275 5.55544L14.338 6.13651L11.5203 6.74424L11.4098 6.22033C10.884 3.78939 9.53134 2.85017 7.70814 2.85017C5.13812 2.85017 3.09392 5.08869 3.09392 10.5297C3.09392 15.6678 4.9457 17.8225 7.54239 17.8225C9.39417 17.8225 11.5489 16.8566 11.5489 13.4579V12.8787H7.48714V10.4745H14.3665V20.0058H11.907L11.7413 17.6568C10.8287 19.5619 9.0341 20.3373 6.93466 20.3373C2.73576 20.3335 0 16.9919 0 10.7202Z" fill="white"/>
<path d="M24.9738 18.676C24.1165 19.5867 22.9848 20.3068 21.1616 20.3335C18.5649 20.3335 16.8789 18.5922 16.8789 16.3556C16.8789 13.9246 18.8964 12.7359 20.6644 12.2386L24.9471 11.0231V10.5259C24.9471 8.97895 23.9793 8.20546 22.4609 8.20546C21.0511 8.20546 19.9195 9.08944 19.4222 10.0839L19.3384 10.2497L17.1552 9.08944L17.2942 8.8132C17.902 7.56915 19.588 5.85645 22.7086 5.85645C25.8292 5.85645 27.82 7.43198 27.82 10.2763V17.5425C27.82 18.2321 27.8486 19.1447 27.9858 19.7524L28.041 20.002H25.1681L25.1395 19.8629C25.0557 19.4762 25.0005 19.0894 24.9738 18.676ZM21.9065 18.1521C23.1772 18.1521 24.3108 17.4053 24.9452 16.6052V13.1245L21.9618 14.0371C20.8301 14.3952 19.8338 14.9763 19.8338 16.1651C19.8338 17.3539 20.6358 18.154 21.9065 18.154V18.1521Z" fill="white"/>
<path d="M44.5036 8.34459C43.3719 8.34459 42.1831 9.11807 41.5201 9.78105V20.002H38.6472V10.4707C38.6472 9.06091 37.929 8.34268 36.5478 8.34268C35.4161 8.34268 34.2273 9.11616 33.5643 9.77915V20.0001H30.6914V6.18989H33.4272V7.71018C34.4769 6.60521 35.9686 5.8584 37.5156 5.8584C39.4493 5.8584 40.6095 6.74238 41.162 7.95785C42.2117 6.7138 43.8139 5.8584 45.4714 5.8584C48.3176 5.8584 49.4778 7.76543 49.4778 9.8363V20.002H46.6049V10.4707C46.6049 9.06091 45.8867 8.34268 44.5055 8.34268L44.5036 8.34459Z" fill="white"/>
<path d="M55.3595 18.7313L55.0833 20.0021H52.6523V0.665039H55.5253V7.32345C56.354 6.38422 57.6247 5.85841 58.9507 5.85841C62.0999 5.85841 64.2279 8.20743 64.2279 12.9036C64.2279 17.5997 61.9894 20.3355 58.8402 20.3355C57.4304 20.3355 56.133 19.7544 55.3595 18.7332V18.7313ZM58.2877 18.0131C59.9185 18.0131 61.2997 16.5214 61.2997 12.9855C61.2997 9.44957 59.8632 8.20552 58.2325 8.20552C57.1275 8.20552 56.2149 8.75801 55.5253 9.47624V16.6871C56.2435 17.4339 57.1827 18.0131 58.2877 18.0131Z" fill="white"/>
<path d="M66.6016 0.665039H69.4745V20.0021H66.6016V0.665039Z" fill="white"/>
<path d="M72.0156 13.2903C72.0156 8.92565 74.1989 5.8584 78.0111 5.8584C80.6916 5.8584 83.5073 7.46061 83.5073 12.433V13.7304H74.8333V13.8961C74.8333 16.5766 76.2431 18.0683 78.1196 18.0683C79.3351 18.0683 80.3582 17.5711 81.0478 16.3271L81.2136 16.0222L83.4788 16.99L83.3416 17.2663C82.3185 19.3105 80.4953 20.3335 78.0377 20.3335C74.5571 20.3335 72.0156 17.874 72.0156 13.2884V13.2903ZM80.8002 11.8252V11.6309C80.8002 9.11616 79.4742 8.17693 78.0111 8.17693C76.5479 8.17693 75.1095 9.28191 74.8619 11.8233H80.8021L80.8002 11.8252Z" fill="white"/>
</g>
<defs>
<clipPath id="clip0_8305_3545">
<rect width="151.174" height="20" fill="white" transform="translate(0 0.333496)"/>
</clipPath>
</defs>
</svg>
