<?xml version="1.0" encoding="utf-8"?>
<!-- Generator: Adobe Illustrator 19.2.1, SVG Export Plug-In . SVG Version: 6.00 Build 0)  -->
<svg version="1.1" id="layer" xmlns="http://www.w3.org/2000/svg" xmlns:xlink="http://www.w3.org/1999/xlink" x="0px" y="0px"
	 viewBox="0 255 650 128" style="enable-background:new 0 0 650 128;" xml:space="preserve">
<style type="text/css">
	.st0{fill:#35A8E0;}
	.st1{fill:#FFFFFF;}
	.st2{fill:#1D1D1B;}
</style>
<path class="st0" d="M312.2,374.4H26.9c-2.9,0-5.3-2.4-5.3-5.3v-49.4c0-28.5,23.1-51.6,51.6-51.6l0,0h238.9c2.9,0,5.3,2.4,5.3,5.3
	v96c0,2.9-2.4,5.3-5.3,5.3V374.4z"/>
<path class="st1" d="M312.2,375.6H27c-3.5,0-6.3-2.8-6.3-6.3l0,0v-49.4c0-29.2,23.7-52.9,52.9-52.9h238.6c3.5,0,6.3,2.8,6.3,6.3
	c0,0,0,0,0,0v96C318.5,372.8,315.7,375.6,312.2,375.6L312.2,375.6z M73.5,269.5c-27.8,0-50.4,22.6-50.4,50.4v49.4
	c0,2.1,1.7,3.9,3.9,3.9h285.3c2.1,0,3.9-1.7,3.9-3.9v0v-96c0-2.1-1.7-3.9-3.9-3.9l0,0L73.5,269.5z"/>
<path class="st1" d="M121.5,317.5v39.6c0,0.4-0.3,0.7-0.7,0.7h-15.6c-0.4,0-0.7-0.3-0.7-0.7l0,0c0-0.4-0.3-0.7-0.7-0.7
	c-0.1,0-0.2,0-0.3,0c-1.6,0.5-3.1,0.9-4.8,1.1c-1.9,0.3-3.9,0.5-5.9,0.5c-4.8-0.1-9.5-1.1-13.9-2.9c-4.6-1.8-8.8-4.6-12.2-8.1
	c-3.5-3.4-6.2-7.5-8-12c-1.7-4.4-2.6-9.1-2.6-13.9c0-4.8,0.9-9.5,2.6-13.9c1.8-4.6,4.5-8.8,8-12.2c3.5-3.5,7.6-6.3,12.2-8.1
	c8.9-3.6,18.9-3.6,27.8,0c4.3,1.7,8.3,4.3,11.6,7.6c0.3,0.3,0.3,0.8,0,1c0,0,0,0,0,0l-11,11c-0.3,0.3-0.8,0.3-1,0c0,0,0,0,0,0
	c-1.8-1.7-3.8-3-6.1-3.9c-4.8-1.9-10.2-1.9-15,0c-2.5,1-4.7,2.4-6.6,4.3c-7.8,7.8-7.8,20.4-0.1,28.1c0,0,0,0,0.1,0.1
	c1.7,1.7,3.7,3.1,5.9,4.1c2.1,1,4.4,1.5,6.7,1.7c2.3,0.2,4.6,0,6.9-0.6c2.1-0.6,4.2-1.5,6-2.8c0.2-0.1,0.3-0.4,0.3-0.6v-2.5
	c0-0.4-0.3-0.7-0.7-0.7H90.5c-0.4,0-0.7-0.3-0.7-0.7v-15.4c0-0.4,0.3-0.7,0.7-0.7h30.2C121.1,316.7,121.5,317,121.5,317.5
	C121.5,317.4,121.5,317.5,121.5,317.5z"/>
<path class="st1" d="M179.4,357.4l-2.5-7.6c-0.1-0.3-0.4-0.5-0.7-0.5H154c-0.3,0-0.6,0.2-0.7,0.5l-2.6,7.9c-0.1,0.3-0.4,0.5-0.7,0.5
	h-16.3c-0.4,0-0.7-0.3-0.7-0.7c0-0.1,0-0.2,0-0.3l24.5-72c0.1-0.3,0.4-0.5,0.7-0.5h14.9c0.3,0,0.6,0.2,0.7,0.5l23.2,72
	c0.1,0.4,0,0.8-0.4,1c-0.1,0-0.2,0.1-0.3,0h-16.2C179.7,358.2,179.4,357.9,179.4,357.4C179.4,357.5,179.4,357.4,179.4,357.4z
	 M160.4,332.1h9.8c0.4,0,0.8-0.3,0.8-0.7c0-0.1,0-0.2,0-0.3l-4.8-14.7c-0.1-0.4-0.5-0.6-0.9-0.5c-0.3,0.1-0.4,0.3-0.5,0.5l-5.3,14.7
	c-0.2,0.4,0,0.8,0.4,1C160.1,332.2,160.2,332.2,160.4,332.1z"/>
<path class="st1" d="M262,284.3h16.2c0.4,0,0.7,0.3,0.7,0.7l4.2,72.1c0,0.4-0.3,0.8-0.7,0.8c0,0,0,0-0.1,0H267
	c-0.4,0-0.7-0.3-0.7-0.7l-1.5-25.5c0-0.4-0.3-0.7-0.7-0.7c-0.4,0-0.7,0.3-0.7,0.7l-8.7,25.7c-0.1,0.3-0.4,0.5-0.7,0.5H238
	c-0.3,0-0.6-0.2-0.7-0.5l-9.5-27.2c0-0.4-0.3-0.7-0.7-0.7c-0.4,0-0.7,0.3-0.7,0.7l-1.7,26.8c0,0.4-0.4,0.7-0.7,0.7h-15.6
	c-0.4,0-0.7-0.3-0.7-0.7c0,0,0,0,0-0.1l4.7-71.8c0-0.4,0.4-0.7,0.7-0.7h16.2c0.3,0,0.6,0.2,0.7,0.5l15.2,43.5
	c0.1,0.4,0.5,0.6,0.9,0.5c0.3-0.1,0.4-0.3,0.5-0.5l14.8-43.5C261.4,284.6,261.7,284.4,262,284.3z"/>
<path class="st2" d="M329.1,268.2h285.3c2.9,0,5.3,2.4,5.3,5.3l0,0v49.4c0,28.5-23.1,51.6-51.6,51.6l0,0h-239
	c-2.9,0-5.3-2.4-5.3-5.3v-96C323.9,270.4,326.2,268.2,329.1,268.2z"/>
<path class="st1" d="M567.8,375.6H329.1c-3.5,0-6.3-2.8-6.3-6.3v0v-96c0-3.5,2.8-6.3,6.3-6.3l0,0h285.3c3.5,0,6.3,2.8,6.3,6.3
	c0,0,0,0,0,0v49.4C620.7,351.9,597,375.5,567.8,375.6z M329.1,269.5c-2.1,0-3.9,1.7-3.9,3.9c0,0,0,0,0,0v95.9c0,2.1,1.7,3.9,3.9,3.9
	l0,0h238.8c27.8,0,50.4-22.6,50.4-50.4v-49.4c0-2.1-1.7-3.9-3.9-3.9L329.1,269.5z"/>
<path class="st1" d="M371,358c-2.3,0-4.7-0.3-6.9-1c-2.3-0.6-4.5-1.6-6.6-3c-3.5-2.3-6.4-5.4-8.4-9c-1.9-3.5-2.9-7.4-3-11.4
	c0-0.4,0.3-0.8,0.7-0.8c0,0,0,0,0.1,0h15.7c0.4,0,0.7,0.3,0.7,0.7c0,1.4,0.5,2.8,1.3,3.9c0.6,0.9,1.4,1.7,2.3,2.3
	c1.2,0.8,2.5,1.3,3.9,1.3c1.4,0.1,2.8-0.2,4.1-0.8c0.9-0.3,1.6-0.8,2.3-1.5c0.5-0.5,1-1.1,1.3-1.7c0.3-0.5,0.5-1.1,0.5-1.6
	c0.1-0.9,0.1-1.7,0-2.6c-0.1-0.6-0.3-1.2-0.5-1.7c-0.3-0.6-0.8-1.2-1.3-1.7c-0.7-0.6-1.4-1.1-2.3-1.5l-2.3-0.9l-2.6-0.9l-5.3-1.8
	c-1.9-0.7-3.6-1.6-5.3-2.7c-2.3-1.4-4.3-3.2-5.9-5.3c-3.2-4.3-4.7-9.6-4.2-15c0.2-2.7,1-5.4,2.3-7.8c1.2-2.2,2.7-4.2,4.5-5.9
	c1.8-1.6,3.8-3,6-4c2.2-1,4.6-1.6,7.1-1.7c2.6-0.2,5.2,0,7.7,0.7c2.4,0.6,4.8,1.5,6.9,2.9c2,1.3,3.8,2.9,5.3,4.7
	c1.4,1.8,2.4,3.8,3.2,5.9c0.7,2,1.1,4.2,1.2,6.4c0,0.4-0.3,0.8-0.7,0.8c0,0,0,0-0.1,0h-15.3c-0.4,0-0.7-0.3-0.7-0.6
	c0-1-0.6-2-1.4-2.5c-0.8-0.5-1.6-0.9-2.5-1.2l0,0h-0.8c-0.6-0.1-1.1-0.1-1.7,0c-0.7,0.1-1.4,0.3-2,0.7c-0.7,0.4-1.3,1-1.6,1.7
	c-0.5,1-0.6,2.2-0.3,3.3c0.3,1.1,1,2.1,2,2.8c1,0.6,2,1,3.1,1.4l3.6,1.3l3.4,1.1c1.2,0.4,2.3,0.8,3.5,1.4c8.5,3.7,14,12.1,14.1,21.4
	c0,4.6-1.3,9.1-3.8,12.9c-3.6,5.4-9.2,9.2-15.6,10.6C374.7,357.8,372.8,358,371,358z"/>
<path class="st1" d="M597.2,315.4c0,4.1-0.8,8.1-2.3,11.9c-1.5,3.6-3.7,6.9-6.5,9.7c-2.8,2.8-6.1,5.1-9.7,6.7
	c-3.5,1.6-7.2,2.4-11.1,2.5c-0.4,0-0.7,0.3-0.7,0.7v10.3c0,0.4-0.3,0.7-0.7,0.7h-15.4c-0.4,0-0.7-0.3-0.7-0.7v-72
	c0-0.4,0.3-0.7,0.7-0.7h16.1c4.1,0,8.1,0.9,11.8,2.6c3.6,1.6,6.9,3.9,9.7,6.7c2.8,2.8,5,6.1,6.5,9.7
	C596.4,307.3,597.2,311.3,597.2,315.4z M566.8,328.6c0,0.4,0.3,0.7,0.7,0.7c0,0,0,0,0.1,0c1.5-0.1,3-0.6,4.4-1.2
	c1.6-0.7,3-1.8,4.2-3c1.2-1.3,2.2-2.8,2.9-4.4c1.4-3.4,1.4-7.2,0-10.6c-0.7-1.6-1.6-3.1-2.9-4.4c-1.2-1.3-2.7-2.3-4.2-3
	c-1.4-0.7-2.9-1.1-4.4-1.2c-0.4,0-0.7,0.2-0.8,0.6V328.6z"/>
<path class="st1" d="M497.5,284.4c4.9,0,9.8,1,14.3,2.9c4.4,1.9,8.3,4.5,11.7,7.8c3.3,3.3,6,7.3,7.9,11.6c3.9,9.2,3.9,19.5,0,28.6
	c-1.9,4.3-4.5,8.3-7.9,11.6c-3.4,3.4-7.3,6.1-11.7,8c-9.1,3.9-19.4,3.9-28.6,0c-8.8-3.7-15.8-10.7-19.5-19.5
	c-3.8-9.2-3.8-19.5,0-28.6c3.7-8.8,10.7-15.8,19.5-19.5C487.7,285.4,492.6,284.4,497.5,284.4z M497.5,341c2.7,0,5.3-0.5,7.7-1.5
	c4.8-2,8.6-5.8,10.6-10.6c2.1-4.9,2.1-10.5,0-15.4c-2-4.8-5.8-8.6-10.6-10.6c-4.9-2.1-10.5-2.1-15.4,0c-4.8,2-8.6,5.8-10.6,10.6
	c-2.1,4.9-2.1,10.5,0,15.4c2,4.8,5.8,8.6,10.6,10.6C492.3,340.5,494.9,341,497.5,341L497.5,341z"/>
<path class="st1" d="M422.6,300.6h15.6c0.4,0,0.7,0.3,0.7,0.7v55.9c0,0.4-0.3,0.7-0.7,0.7h-15.6c-0.4,0-0.7-0.3-0.7-0.7v-55.9
	C421.9,300.9,422.2,300.6,422.6,300.6z"/>
<path class="st1" d="M408.6,284.4h43.6c0.4,0,0.7,0.3,0.7,0.7v15.6c0,0.4-0.3,0.7-0.7,0.7h-43.6c-0.4,0-0.7-0.3-0.7-0.7v-15.6
	C407.9,284.8,408.2,284.4,408.6,284.4z"/>
</svg>
